<svg width="62" height="64" viewBox="0 0 62 64" fill="none" xmlns="http://www.w3.org/2000/svg">
<path d="M58.2908 0.799946C57.5546 0.0637423 56.2829 0.13067 55.6806 1.00073L39.618 23.0199L32.3898 32.6575L27.0356 25.4962C29.378 23.2876 29.7796 19.6066 27.8387 16.9295L16.1264 0.799946C15.524 -0.0701129 14.2524 -0.270896 13.3823 0.39838C12.5123 1.00073 12.3115 2.27235 12.9808 3.14241L22.6184 16.3941C22.8861 16.7956 22.8191 17.3311 22.4176 17.6657L20.7444 18.8704C20.3428 19.1381 19.8074 19.0712 19.4728 18.6696L9.83518 5.35102C9.23283 4.48097 7.9612 4.28018 7.09114 4.94946C6.22108 5.55181 6.0203 6.82343 6.68958 7.69349L16.3272 20.9452C16.5949 21.3467 16.5279 21.8821 16.1264 22.2168L14.4532 23.4215C14.0516 23.6892 13.5162 23.6223 13.1816 23.2207L3.54398 9.96903C2.94163 9.09897 1.67001 8.89819 0.799946 9.56746C-0.0701129 10.1698 -0.270896 11.4414 0.39838 12.3115L12.0438 28.3741C14.0516 31.1182 17.7996 31.8544 20.6775 30.1142L27.2364 39.4841L14.587 56.3499C13.0477 58.3577 13.5162 61.2356 15.524 62.708C17.5319 64.1804 20.4097 63.7119 21.8821 61.6372L32.3898 46.7123L42.8974 61.6372C44.3698 63.7119 47.1808 64.1804 49.2555 62.708C51.2634 61.2356 51.7319 58.3577 50.1925 56.3499L37.4763 39.4841L41.7597 33.3937L43.2321 34.4645C45.7753 36.2716 49.3225 35.6023 50.9957 32.9921L54.5428 27.4371C57.6215 22.6184 59.8301 17.398 61.1687 11.9099C62.2395 7.89427 61.1017 3.67783 58.2908 0.799946Z" fill="#3655C7"/>
</svg>
